<svg width="114" height="20" viewBox="0 0 114 20" fill="none" xmlns="http://www.w3.org/2000/svg">
<path d="M12.1958 14.1294C12.1958 15.2443 11.9354 16.1842 11.4146 16.9492C10.8937 17.7061 10.1776 18.2798 9.26611 18.6704C8.36279 19.0529 7.3374 19.2441 6.18994 19.2441C5.04248 19.2441 4.01302 19.0529 3.10156 18.6704C2.1901 18.2798 1.46989 17.7061 0.940918 16.9492C0.411947 16.1842 0.147461 15.2443 0.147461 14.1294C0.147461 13.3807 0.298014 12.7052 0.599121 12.103C0.900228 11.4927 1.31934 10.9718 1.85645 10.5405C2.40169 10.1011 3.04053 9.76742 3.77295 9.53955C4.50537 9.30355 5.3029 9.18555 6.16553 9.18555C7.32113 9.18555 8.35465 9.389 9.26611 9.7959C10.1776 10.2028 10.8937 10.7765 11.4146 11.5171C11.9354 12.2576 12.1958 13.1284 12.1958 14.1294ZM8.65576 13.8975C8.65576 13.3522 8.54997 12.8843 8.33838 12.4937C8.13493 12.0949 7.84603 11.7897 7.47168 11.5781C7.09733 11.3665 6.66195 11.2607 6.16553 11.2607C5.66911 11.2607 5.23372 11.3665 4.85938 11.5781C4.48503 11.7897 4.19206 12.0949 3.98047 12.4937C3.77702 12.8843 3.67529 13.3522 3.67529 13.8975C3.67529 14.4346 3.77702 14.8984 3.98047 15.2891C4.19206 15.6797 4.48503 15.9808 4.85938 16.1924C5.24186 16.3958 5.68538 16.4976 6.18994 16.4976C6.6945 16.4976 7.12988 16.3958 7.49609 16.1924C7.87044 15.9808 8.15527 15.6797 8.35059 15.2891C8.55404 14.8984 8.65576 14.4346 8.65576 13.8975ZM11.8174 5.93848C11.8174 6.8418 11.5773 7.64339 11.0972 8.34326C10.617 9.03499 9.94971 9.57617 9.09521 9.9668C8.24886 10.3574 7.28044 10.5527 6.18994 10.5527C5.09131 10.5527 4.11475 10.3574 3.26025 9.9668C2.40576 9.57617 1.73844 9.03499 1.2583 8.34326C0.778158 7.64339 0.538086 6.8418 0.538086 5.93848C0.538086 4.86426 0.778158 3.96094 1.2583 3.22852C1.74658 2.48796 2.4139 1.92643 3.26025 1.54395C4.11475 1.16146 5.08317 0.970215 6.16553 0.970215C7.26416 0.970215 8.23665 1.16146 9.08301 1.54395C9.9375 1.92643 10.6048 2.48796 11.085 3.22852C11.5732 3.96094 11.8174 4.86426 11.8174 5.93848ZM8.30176 6.09717C8.30176 5.61702 8.21631 5.20199 8.04541 4.85205C7.87451 4.49398 7.63037 4.21729 7.31299 4.02197C7.00374 3.82666 6.62126 3.729 6.16553 3.729C5.72607 3.729 5.34766 3.82259 5.03027 4.00977C4.72103 4.19694 4.48096 4.46956 4.31006 4.82764C4.1473 5.17757 4.06592 5.60075 4.06592 6.09717C4.06592 6.57731 4.1473 7.00049 4.31006 7.3667C4.48096 7.72477 4.7251 8.00553 5.04248 8.20898C5.35986 8.41243 5.74235 8.51416 6.18994 8.51416C6.63753 8.51416 7.01595 8.41243 7.3252 8.20898C7.64258 8.00553 7.88265 7.72477 8.04541 7.3667C8.21631 7.00049 8.30176 6.57731 8.30176 6.09717ZM26.832 12.7012H24.2197V11.1265H26.0874C26.5269 11.1265 26.8768 11.0654 27.1372 10.9434C27.4058 10.8213 27.597 10.6504 27.7109 10.4307C27.833 10.2028 27.894 9.94645 27.894 9.66162C27.894 9.40934 27.8411 9.16927 27.7354 8.94141C27.6377 8.7054 27.4587 8.51416 27.1982 8.36768C26.946 8.21305 26.5879 8.13574 26.124 8.13574C25.7415 8.13574 25.3997 8.19271 25.0986 8.30664C24.8057 8.42057 24.5737 8.5874 24.4028 8.80713C24.2401 9.01872 24.1587 9.27507 24.1587 9.57617H20.6309C20.6309 8.73796 20.8709 8.02181 21.3511 7.42773C21.8312 6.82552 22.4741 6.36572 23.2798 6.04834C24.0854 5.72282 24.9684 5.56006 25.9287 5.56006C26.7669 5.56006 27.5238 5.64551 28.1992 5.81641C28.8747 5.97917 29.4525 6.22331 29.9326 6.54883C30.4128 6.87435 30.779 7.27718 31.0312 7.75732C31.2917 8.22933 31.4219 8.77865 31.4219 9.40527C31.4219 9.85286 31.3161 10.276 31.1045 10.6748C30.8929 11.0736 30.5877 11.4276 30.189 11.7368C29.7902 12.0379 29.306 12.2739 28.7363 12.4448C28.1748 12.6157 27.54 12.7012 26.832 12.7012ZM24.2197 11.8223H26.832C27.6214 11.8223 28.3132 11.8996 28.9072 12.0542C29.5094 12.2007 30.014 12.4204 30.4209 12.7134C30.8278 13.0063 31.133 13.3685 31.3364 13.7998C31.548 14.223 31.6538 14.7113 31.6538 15.2646C31.6538 15.8913 31.5155 16.4528 31.2388 16.9492C30.9621 17.4375 30.5674 17.8525 30.0547 18.1943C29.542 18.5361 28.9357 18.7965 28.2358 18.9756C27.536 19.1546 26.7669 19.2441 25.9287 19.2441C25.0335 19.2441 24.1628 19.0977 23.3164 18.8047C22.4701 18.5117 21.7743 18.0601 21.229 17.4497C20.6919 16.8394 20.4233 16.054 20.4233 15.0938H23.9512C23.9512 15.3704 24.0326 15.6309 24.1953 15.875C24.3581 16.1191 24.6022 16.3145 24.9277 16.4609C25.2533 16.5993 25.6561 16.6685 26.1362 16.6685C26.6164 16.6685 27.0029 16.5911 27.2959 16.4365C27.5889 16.2819 27.8005 16.0785 27.9307 15.8262C28.069 15.5658 28.1382 15.2972 28.1382 15.0205C28.1382 14.6299 28.0609 14.3125 27.9062 14.0684C27.7598 13.8242 27.5319 13.6452 27.2227 13.5312C26.9215 13.4173 26.5431 13.3604 26.0874 13.3604H24.2197V11.8223ZM40.9434 16.0215V10.1377C40.9434 9.71452 40.8742 9.35238 40.7358 9.05127C40.5975 8.74202 40.3818 8.50195 40.0889 8.33105C39.804 8.16016 39.4338 8.07471 38.978 8.07471C38.5874 8.07471 38.2497 8.14388 37.9648 8.28223C37.68 8.41243 37.4603 8.60368 37.3057 8.85596C37.151 9.1001 37.0737 9.389 37.0737 9.72266H33.5581C33.5581 9.16113 33.6883 8.62809 33.9487 8.12354C34.2091 7.61898 34.5876 7.17546 35.084 6.79297C35.5804 6.40234 36.1704 6.09717 36.854 5.87744C37.5457 5.65771 38.3188 5.54785 39.1733 5.54785C40.1987 5.54785 41.1102 5.71875 41.9077 6.06055C42.7052 6.40234 43.3319 6.91504 43.7876 7.59863C44.2515 8.28223 44.4834 9.13672 44.4834 10.1621V15.814C44.4834 16.5382 44.5282 17.1323 44.6177 17.5962C44.7072 18.0519 44.8374 18.4507 45.0083 18.7925V19H41.4561C41.2852 18.6419 41.1549 18.1943 41.0654 17.6572C40.984 17.112 40.9434 16.5667 40.9434 16.0215ZM41.4072 10.9556L41.4316 12.9453H39.4663C39.0024 12.9453 38.5996 12.9982 38.2578 13.104C37.916 13.2098 37.6353 13.3604 37.4155 13.5557C37.1958 13.7428 37.033 13.9626 36.9272 14.2148C36.8296 14.4671 36.7808 14.7438 36.7808 15.0449C36.7808 15.346 36.8499 15.6187 36.9883 15.8628C37.1266 16.0988 37.326 16.286 37.5864 16.4243C37.8468 16.5545 38.152 16.6196 38.502 16.6196C39.0309 16.6196 39.4907 16.5138 39.8813 16.3022C40.272 16.0907 40.5731 15.8302 40.7847 15.521C41.0044 15.2118 41.1183 14.9188 41.1265 14.6421L42.0542 16.1313C41.924 16.465 41.745 16.8109 41.5171 17.1689C41.2974 17.527 41.0166 17.8647 40.6748 18.1821C40.333 18.4914 39.922 18.7477 39.4419 18.9512C38.9618 19.1465 38.3921 19.2441 37.7329 19.2441C36.8947 19.2441 36.1338 19.0773 35.4502 18.7437C34.7747 18.4019 34.2376 17.9339 33.8389 17.3398C33.4482 16.7376 33.2529 16.054 33.2529 15.2891C33.2529 14.5973 33.3831 13.9829 33.6436 13.4458C33.904 12.9087 34.2865 12.457 34.791 12.0908C35.3037 11.7165 35.9425 11.4357 36.7075 11.2485C37.4725 11.0532 38.3595 10.9556 39.3687 10.9556H41.4072ZM56.2388 11.1265V13.8608H49.5249V11.1265H56.2388ZM50.6968 5.79199V19H47.1812V5.79199H50.6968ZM58.6191 5.79199V19H55.0913V5.79199H58.6191ZM64.1978 12.4082H67.7622L64.0879 19H60.5356L64.1978 12.4082ZM66.5659 5.79199H72.3643V19H68.8486V8.51416H66.5659C66.0858 8.51416 65.687 8.60368 65.3696 8.78271C65.0522 8.95361 64.8162 9.17741 64.6616 9.4541C64.5151 9.72266 64.4419 9.99935 64.4419 10.2842C64.4419 10.5609 64.5151 10.8294 64.6616 11.0898C64.8081 11.3503 65.036 11.5659 65.3452 11.7368C65.6545 11.9077 66.041 11.9932 66.5049 11.9932H70.1548V14.3857H66.5049C65.6341 14.3857 64.8529 14.2799 64.1611 14.0684C63.4775 13.8568 62.8916 13.5638 62.4033 13.1895C61.9232 12.807 61.5529 12.3634 61.2925 11.8589C61.0402 11.3462 60.9141 10.7847 60.9141 10.1743C60.9141 9.53955 61.0443 8.95768 61.3047 8.42871C61.5651 7.89974 61.9395 7.43587 62.4277 7.03711C62.916 6.63835 63.506 6.33317 64.1978 6.12158C64.8976 5.90186 65.687 5.79199 66.5659 5.79199ZM82.0688 5.79199V19H78.541V5.79199H82.0688ZM86.3169 5.79199V8.51416H74.354V5.79199H86.3169ZM91.6147 14.0928L96.0459 5.79199H99.5615V19H96.0459V10.687L91.6147 19H88.0991V5.79199H91.6147V14.0928ZM105.775 14.0928L110.206 5.79199H113.722V19H110.206V10.687L105.775 19H102.259V5.79199H105.775V14.0928ZM109.803 0.481934H112.306C112.306 1.1818 112.131 1.80436 111.781 2.34961C111.439 2.88672 110.951 3.3099 110.316 3.61914C109.681 3.92025 108.932 4.0708 108.07 4.0708C106.76 4.0708 105.722 3.73714 104.957 3.06982C104.2 2.40251 103.822 1.53988 103.822 0.481934H106.312C106.312 0.905111 106.442 1.28353 106.703 1.61719C106.971 1.95085 107.427 2.11768 108.07 2.11768C108.705 2.11768 109.152 1.95085 109.413 1.61719C109.673 1.28353 109.803 0.905111 109.803 0.481934Z" fill="black"/>
</svg>
